Coordinates
version=1
nRows=14
nColumns=38
inDegrees=no

Units are S.I. units (second, meters, Newtons, ...)
If the header above contains a line with 'inDegrees', this indicates whether rotational values are in degrees (yes) or radians (no).

endheader
time	pelvis_tilt	pelvis_list	pelvis_rotation	pelvis_tx	pelvis_ty	pelvis_tz	hip_flexion_r	hip_adduction_r	hip_rotation_r	knee_angle_r	ankle_angle_r	subtalar_angle_r	mtp_angle_r	hip_flexion_l	hip_adduction_l	hip_rotation_l	knee_angle_l	ankle_angle_l	subtalar_angle_l	mtp_angle_l	lumbar_extension	lumbar_bending	lumbar_rotation	arm_flex_r	arm_add_r	arm_rot_r	elbow_flex_r	pro_sup_r	wrist_flex_r	wrist_dev_r	arm_flex_l	arm_add_l	arm_rot_l	elbow_flex_l	pro_sup_l	wrist_flex_l	wrist_dev_l
55	1.03836	1.27919	0.773755	1.53653	0.16116	0.856111	0.96419	-0.121739	-0.226676	1.31252	0.0328208	0	0	0.872732	-0.217867	0.0203381	1.34884	0.182769	0	0	-0.713002	0.0777472	0.0925411	1.15311	-0.445113	0.594755	0.33923	1.5708	0	0	0.154442	-0.431464	0.366741	0.917769	1.4872	0	0
55.01	1.12761	1.26755	0.656489	1.53697	0.173714	0.851265	0.973492	-0.0808308	-0.235958	1.28522	0.036059	0	0	0.858752	-0.263064	0.0195813	1.39591	0.21179	0	0	-0.722385	0.0864877	0.134031	1.14604	-0.449965	0.613494	0.325981	1.5708	0	0	0.14342	-0.428273	0.386769	0.92198	1.46253	0	0
55.02	1.09204	1.25734	0.705177	1.53529	0.181704	0.847699	1.0083	-0.0949541	-0.250983	1.24942	0.0303768	0	0	0.863233	-0.209444	0.101826	1.39896	0.230961	0	0	-0.71475	0.0947453	0.126172	1.13756	-0.451955	0.60839	0.319935	1.5708	0	0	0.146205	-0.433304	0.40102	0.925732	1.44863	0	0
55.03	1.13103	1.25784	0.659869	1.53542	0.192714	0.846447	1.01296	-0.0835188	-0.261036	1.20975	0.0231382	0	0	0.854112	-0.268547	0.0322729	1.42056	0.23029	0	0	-0.731604	0.0928412	0.139684	1.12879	-0.453795	0.605984	0.312011	1.5708	0	0	0.147768	-0.439455	0.417214	0.931608	1.42989	0	0
55.04	1.13391	1.2539	0.661577	1.53465	0.20254	0.843998	1.02869	-0.0865033	-0.275229	1.16937	0.0103677	0	0	0.85054	-0.270504	0.0388491	1.433	0.240423	0	0	-0.735779	0.0958349	0.141829	1.11724	-0.456767	0.603122	0.306576	1.5708	0	0	0.151011	-0.446531	0.43671	0.936831	1.40828	0	0
55.05	1.13876	1.25106	0.662113	1.53379	0.212632	0.841546	1.04129	-0.0909009	-0.29091	1.12823	-0.00696018	0	0	0.845101	-0.271695	0.0448982	1.44522	0.250926	0	0	-0.740293	0.098824	0.143104	1.10468	-0.459805	0.600769	0.301196	1.5708	0	0	0.153155	-0.452748	0.453182	0.941122	1.39003	0	0
55.06	1.13724	1.24497	0.664704	1.5335	0.222699	0.839088	1.05647	-0.0883777	-0.302658	1.08315	-0.0297379	0	0	0.842617	-0.276187	0.0509473	1.45661	0.261376	0	0	-0.741705	0.100342	0.148372	1.09118	-0.463111	0.59682	0.296591	1.5708	0	0	0.154571	-0.456526	0.465169	0.942688	1.37594	0	0
55.07	1.1388	1.24083	0.667467	1.53301	0.233115	0.836687	1.06726	-0.0895631	-0.316599	1.03785	-0.0378395	0	0	0.838009	-0.279041	0.0558421	1.46779	0.269103	0	0	-0.74479	0.102526	0.149542	1.07767	-0.464744	0.594169	0.291336	1.5708	0	0	0.152682	-0.45996	0.468649	0.946664	1.37573	0	0
55.08	1.14117	1.23734	0.671278	1.5324	0.2438	0.834237	1.07598	-0.0921326	-0.330511	0.992509	-0.0636184	0	0	0.832764	-0.281356	0.060105	1.47913	0.279334	0	0	-0.747418	0.105434	0.150319	1.0614	-0.467865	0.58764	0.288363	1.5708	0	0	0.153824	-0.465355	0.481857	0.95006	1.35779	0	0
55.09	1.1406	1.23224	0.676735	1.53187	0.254551	0.83164	1.08488	-0.0931576	-0.344636	0.945782	-0.0911596	0	0	0.829112	-0.284263	0.065547	1.4907	0.289448	0	0	-0.748015	0.108614	0.152627	1.04373	-0.471658	0.577745	0.287064	1.5708	0	0	0.155289	-0.469835	0.496223	0.952234	1.33793	0	0
55.1	1.13951	1.22648	0.683406	1.53139	0.265582	0.828789	1.09334	-0.0940774	-0.358575	0.899924	-0.11768	0	0	0.826045	-0.285378	0.0750439	1.50311	0.299606	0	0	-0.746806	0.112634	0.155142	1.02314	-0.475962	0.562908	0.28775	1.5708	0	0	0.155888	-0.473477	0.509464	0.953547	1.31864	0	0
55.11	1.13548	1.21933	0.693333	1.53099	0.276745	0.825837	1.10214	-0.0941011	-0.371321	0.853301	-0.144502	0	0	0.824915	-0.287329	0.0844249	1.51526	0.3094	0	0	-0.743634	0.117208	0.158301	0.999685	-0.480843	0.539607	0.291174	1.5708	0	0	0.156684	-0.47573	0.521714	0.953384	1.29866	0	0
55.12	1.1293	1.21331	0.706851	1.53072	0.288248	0.822587	1.11101	-0.0965657	-0.383106	0.810488	-0.162047	0	0	0.823554	-0.289066	0.0923084	1.52774	0.317251	0	0	-0.739514	0.120905	0.158726	0.97403	-0.484328	0.512539	0.295444	1.5708	0	0	0.155067	-0.478766	0.530265	0.95522	1.28068	0	0
55.13	1.12297	1.20555	0.719366	1.53062	0.299812	0.819501	1.11924	-0.0959098	-0.393363	0.766192	-0.179194	0	0	0.822731	-0.293594	0.101254	1.5395	0.324909	0	0	-0.734899	0.124743	0.161684	0.945405	-0.488438	0.473954	0.303831	1.5708	0	0	0.155556	-0.481436	0.541633	0.955771	1.26093	0	0
